<svg height="15" viewBox="0 0 21 15" width="21" xmlns="http://www.w3.org/2000/svg" xmlns:xlink="http://www.w3.org/1999/xlink"><defs><linearGradient id="a" x1="50%" x2="50%" y1="0%" y2="100%"><stop offset="0" stop-color="#fff"/><stop offset="1" stop-color="#f0f0f0"/></linearGradient><linearGradient id="b" x1="50%" x2="50%" y1="0%" y2="100%"><stop offset="0" stop-color="#e01b41"/><stop offset="1" stop-color="#c51335"/></linearGradient><circle id="c" cx="3.5" cy="3.5" r="3.5"/><linearGradient id="d" x1="50%" x2="50%" y1="0%" y2="100%"><stop offset="0" stop-color="#0e4b9c"/><stop offset="1" stop-color="#053677"/></linearGradient><linearGradient id="e" x1="50%" x2="50%" y1="0%" y2="100%"><stop offset="0" stop-color="#262626"/><stop offset="1" stop-color="#0d0d0d"/></linearGradient><mask id="f" fill="#fff"><use fill="#fff" fill-rule="evenodd" xlink:href="#c"/></mask></defs><g fill="none" fill-rule="evenodd"><path d="m0 0h21v15h-21z" fill="url(#a)"/><g transform="translate(7 4)"><use fill="url(#b)" xlink:href="#c"/><path d="m0 4c.99999998.93749998 2.5 1.5 3.5 0s3-1.50000005 3.5 0 0 3 0 3h-7s-.99999998-3.93749998 0-3z" fill="url(#d)" mask="url(#f)"/></g><path d="m14.2080162 3.92247241c-.0706313-.12233688-.0352093-.27501927.0906456-.34768163l.4289558-.24765777c.1206935-.06968238.2755049-.02749597.346424.0953394l1.2442217 2.15505518c.0706312.12233688.0352092.27501927-.0906457.34768163l-.4289558.24765777c-.1206934.06968238-.2755049.02749597-.3464239-.0953394zm1.2990381-.75c-.0706312-.12233688-.0352093-.27501927.0906456-.34768163l.4289559-.24765777c.1206934-.06968238.2755048-.02749597.3464239.0953394l1.2442217 2.15505518c.0706312.12233688.0352092.27501927-.0906456.34768163l-.4289559.24765777c-.1206934.06968238-.2755049.02749597-.3464239-.0953394zm-12.12435567 6.99999999c-.07063123-.1223369-.03520927-.27501926.09064562-.34768162l.42895585-.24765777c.12069342-.06968238.27550489-.02749597.34642393.0953394l1.24422169 2.15505519c.07063123.1223369.03520927.2750193-.09064562.3476816l-.42895585.2476578c-.12069343.0696824-.2755049.027496-.34642393-.0953394zm1.2990381-.74999999c-.07063123-.12233688-.03520926-.27501927.09064562-.34768163l.42895585-.24765777c.12069343-.06968238.2755049-.02749597.34642394.0953394l1.24422168 2.15505519c.07063124.1223369.03520927.2750193-.09064562.3476816l-.42895585.2476578c-.12069342.0696824-.27550489.027496-.34642393-.0953394zm10.77050117-.5c.0706312-.12233688.220569-.16800176.3464239-.0953394l.4289558.24765777c.1206935.06968238.1615647.22484626.0906457.34768163l-1.2442217 2.15505519c-.0706313.1223369-.2205691.1680017-.346424.0953394l-.4289558-.2476578c-.1206934-.0696824-.1615647-.2248462-.0906456-.3476816zm1.2990381.75c.0706312-.12233688.220569-.16800176.3464239-.0953394l.4289559.24765777c.1206934.06968238.1615646.22484622.0906456.34768162l-1.2442217 2.1550552c-.0706312.1223369-.2205691.1680017-.3464239.0953394l-.4289559-.2476578c-.1206934-.0696824-.1615647-.2248462-.0906456-.3476816zm-12.12435568-7c.07063123-.12233688.22056904-.16800176.34642393-.0953394l.42895585.24765777c.12069342.06968238.16156466.22484626.09064562.34768163l-1.24422169 2.15505518c-.07063123.12233688-.22056904.16800176-.34642393.0953394l-.42895585-.24765777c-.12069343-.06968238-.16156466-.22484626-.09064562-.34768163zm1.2990381.75c.07063123-.12233688.22056905-.16800176.34642393-.0953394l.42895585.24765777c.12069343.06968238.16156466.22484626.09064562.34768163l-1.24422168 2.15505518c-.07063123.12233688-.22056905.16800176-.34642394.0953394l-.42895585-.24765777c-.12069342-.06968238-.16156465-.22484626-.09064562-.34768163z" fill="url(#e)" opacity=".75"/></g></svg>